<svg xmlns="http://www.w3.org/2000/svg" width="580" height="210" viewBox="0 0 580 210" role="img" aria-labelledby="title desc">
  <title id="title">Transaction and Storage System</title>
  <desc id="desc">A practical management system for transactions and inventory</desc>
  <defs><linearGradient id="bg" x1="0" y1="0" x2="1" y2="1"><stop stop-color="#241834"/><stop offset="1" stop-color="#3D3122"/></linearGradient></defs>
  <rect x="1" y="1" width="578" height="208" rx="16" fill="url(#bg)" stroke="#816D48"/>
  <rect x="24" y="22" width="108" height="24" rx="12" fill="#FDE68A" fill-opacity=".12" stroke="#FDE68A" stroke-opacity=".42"/>
  <text x="38" y="39" fill="#FEF3C7" font-family="Inter,Segoe UI,Arial,sans-serif" font-size="11" font-weight="700">SYSTEM BUILD</text>
  <text x="24" y="83" fill="#F8F3FF" font-family="Inter,Segoe UI,Arial,sans-serif" font-size="24" font-weight="800">Transaction &amp; Storage</text>
  <text x="24" y="111" fill="#B9ACC9" font-family="Inter,Segoe UI,Arial,sans-serif" font-size="13">Practical workflows for records, inventory, and reporting.</text>
  <text x="24" y="146" fill="#FDE68A" font-family="JetBrains Mono,Consolas,monospace" font-size="11">Database  CRUD  Reporting  Operations</text>
  <path d="M24 175H235" stroke="#816D48"/>
  <text x="24" y="193" fill="#FDE68A" font-family="Inter,Segoe UI,Arial,sans-serif" font-size="11" font-weight="700">BUILT FOR REAL WORKFLOWS</text>
  <g transform="translate(405 37)">
    <ellipse cx="62" cy="18" rx="58" ry="17" fill="#FDE68A" fill-opacity=".22" stroke="#FDE68A" stroke-width="3"/>
    <path d="M4 18v38c0 10 26 18 58 18s58-8 58-18V18M4 56v38c0 10 26 18 58 18s58-8 58-18V56" fill="none" stroke="#FDE68A" stroke-width="3"/>
    <path d="M4 56c0 10 26 18 58 18s58-8 58-18" fill="none" stroke="#FDE68A" stroke-width="3"/>
    <circle cx="100" cy="92" r="6" fill="#5EEAD4"/>
    <circle cx="84" cy="99" r="5" fill="#A78BFA"/>
  </g>
</svg>
