<svg xmlns="http://www.w3.org/2000/svg" width="580" height="210" viewBox="0 0 580 210" role="img" aria-labelledby="title desc">
  <title id="title">Computer Vision Lab</title>
  <desc id="desc">Experiments in segmentation, reconstruction, and visual intelligence</desc>
  <defs><linearGradient id="bg" x1="0" y1="0" x2="1" y2="1"><stop stop-color="#241834"/><stop offset="1" stop-color="#183B3D"/></linearGradient></defs>
  <rect x="1" y="1" width="578" height="208" rx="16" fill="url(#bg)" stroke="#447B79"/>
  <rect x="24" y="22" width="89" height="24" rx="12" fill="#5EEAD4" fill-opacity=".13" stroke="#5EEAD4" stroke-opacity=".48"/>
  <text x="38" y="39" fill="#B8FFF2" font-family="Inter,Segoe UI,Arial,sans-serif" font-size="11" font-weight="700">NEXT LAB</text>
  <text x="24" y="83" fill="#F8F3FF" font-family="Inter,Segoe UI,Arial,sans-serif" font-size="25" font-weight="800">Computer Vision Lab</text>
  <text x="24" y="111" fill="#B9ACC9" font-family="Inter,Segoe UI,Arial,sans-serif" font-size="13">Segmentation, reconstruction, and smarter visual systems.</text>
  <text x="24" y="146" fill="#99F6E4" font-family="JetBrains Mono,Consolas,monospace" font-size="11">Vision  AI  3D reconstruction  Research</text>
  <path d="M24 175H235" stroke="#447B79"/>
  <text x="24" y="193" fill="#5EEAD4" font-family="Inter,Segoe UI,Arial,sans-serif" font-size="11" font-weight="700">RESEARCH IN PROGRESS</text>
  <g transform="translate(391 42)">
    <path d="M0 60C28 18 103 18 139 60-103 102-28 102 0 60Z" fill="#5EEAD4" fill-opacity=".08" stroke="#5EEAD4" stroke-width="3"/>
    <circle cx="70" cy="60" r="29" fill="#A78BFA" fill-opacity=".22" stroke="#C4B5FD" stroke-width="3"/>
    <circle cx="70" cy="60" r="10" fill="#FB7185"/>
    <path d="M70 6V21M70 99v15M16 60H1M139 60h15" stroke="#A78BFA" stroke-width="3" stroke-linecap="round"/>
  </g>
</svg>
